<svg xmlns="http://www.w3.org/2000/svg" width="293" height="58" fill="none"><path d="M5.356 37.805c.265-.908.632-1.783 1.096-2.604l-1.323-1.669a1.37 1.37 0 0 1 .103-1.815l2.279-2.28a1.364 1.364 0 0 1 1.815-.103l1.658 1.313a12.02 12.02 0 0 1 2.706-1.145l.248-2.134a1.366 1.366 0 0 1 1.356-1.21h3.224c.692 0 1.275.519 1.356 1.21l.238 2.058c1.015.265 1.988.659 2.9 1.172l1.604-1.27a1.37 1.37 0 0 1 1.815.103l2.279 2.28c.491.492.535 1.27.103 1.815l-1.248 1.583c.519.897.924 1.853 1.194 2.852l1.923.221c.691.081 1.21.664 1.21 1.356v3.225c0 .691-.519 1.275-1.21 1.356l-1.896.222a11.958 11.958 0 0 1-1.145 2.82l1.167 1.475a1.37 1.37 0 0 1-.103 1.815l-2.274 2.274a1.364 1.364 0 0 1-1.815.103l-1.431-1.135c-.929.546-1.923.962-2.965 1.243l-.216 1.853A1.367 1.367 0 0 1 18.648 56h-3.225a1.367 1.367 0 0 1-1.356-1.21l-.216-1.853a11.98 11.98 0 0 1-3.041-1.286l-1.485 1.178a1.37 1.37 0 0 1-1.815-.103l-2.279-2.28a1.364 1.364 0 0 1-.103-1.815l1.242-1.572a11.734 11.734 0 0 1-1.123-2.847l-1.987-.227a1.367 1.367 0 0 1-1.21-1.356v-3.225c0-.691.519-1.275 1.21-1.356l2.096-.243zm11.683 8.725a5.34 5.34 0 0 0 5.331-5.332 5.34 5.34 0 0 0-5.331-5.332 5.34 5.34 0 0 0-5.331 5.332 5.338 5.338 0 0 0 5.331 5.332zm17.529-23.733a9.916 9.916 0 0 1 .888-2.108l-1.071-1.351a1.109 1.109 0 0 1 .083-1.469l1.845-1.846a1.104 1.104 0 0 1 1.469-.083l1.342 1.063a9.757 9.757 0 0 1 2.191-.927l.201-1.727c.065-.56.538-.98 1.098-.98h2.61c.56 0 1.032.42 1.098.98l.192 1.666a9.872 9.872 0 0 1 2.348.949l1.299-1.028a1.108 1.108 0 0 1 1.469.083l1.845 1.845c.398.398.433 1.028.083 1.469l-1.01 1.281c.42.726.748 1.5.966 2.309l1.557.179c.56.065.979.538.979 1.098v2.611c0 .56-.42 1.032-.979 1.098l-1.535.179c-.21.8-.525 1.566-.927 2.283l.944 1.194c.35.442.311 1.072-.083 1.469l-1.841 1.841a1.104 1.104 0 0 1-1.469.083l-1.159-.919a9.713 9.713 0 0 1-2.4 1.006l-.175 1.5c-.066.56-.538.98-1.098.98h-2.61c-.56 0-1.032-.42-1.097-.98l-.175-1.5a9.71 9.71 0 0 1-2.462-1.041l-1.202.953a1.108 1.108 0 0 1-1.469-.083l-1.845-1.845a1.104 1.104 0 0 1-.083-1.469l1.006-1.273a9.56 9.56 0 0 1-.91-2.305l-1.609-.182a1.106 1.106 0 0 1-.979-1.098v-2.611c0-.56.42-1.032.979-1.098l1.696-.196zm9.458 7.063a4.322 4.322 0 0 0 4.316-4.316 4.322 4.322 0 0 0-4.316-4.316 4.322 4.322 0 0 0-4.316 4.316 4.323 4.323 0 0 0 4.316 4.316zM14.199 9.765a8.128 8.128 0 0 1 .731-1.736l-.882-1.113a.914.914 0 0 1 .068-1.21l1.52-1.52a.908.908 0 0 1 1.21-.068l1.106.875a8.069 8.069 0 0 1 1.804-.764l.166-1.423A.91.91 0 0 1 20.825 2h2.15c.461 0 .85.346.904.807l.158 1.372a8.079 8.079 0 0 1 1.934.782l1.069-.846a.914.914 0 0 1 1.21.068l1.52 1.52a.908.908 0 0 1 .068 1.21l-.832 1.055c.346.598.616 1.235.796 1.902l1.282.148a.91.91 0 0 1 .806.904v2.15c0 .461-.346.85-.806.904l-1.264.148a8.011 8.011 0 0 1-.763 1.88l.778.983a.914.914 0 0 1-.068 1.21l-1.516 1.516a.908.908 0 0 1-1.21.068l-.954-.756a7.986 7.986 0 0 1-1.977.828l-.144 1.235a.911.911 0 0 1-.904.807h-2.15a.911.911 0 0 1-.904-.807l-.144-1.235a7.975 7.975 0 0 1-2.027-.857l-.99.785a.914.914 0 0 1-1.21-.068l-1.52-1.52a.91.91 0 0 1-.068-1.21l.828-1.048a7.859 7.859 0 0 1-.749-1.898l-1.325-.151a.911.911 0 0 1-.807-.904v-2.15c0-.461.346-.85.807-.904l1.396-.163zm7.789 5.816a3.56 3.56 0 0 0 3.554-3.555 3.56 3.56 0 0 0-3.554-3.555 3.56 3.56 0 0 0-3.554 3.555 3.56 3.56 0 0 0 3.554 3.555zm262.416 10.303c-4.406 0-6.251-2.025-6.251-6.776 0-3.713 2.142-6.412 6.518-6.412.714 0 2.618.078 2.618.078v-6.49a22.178 22.178 0 0 1 1.786-.078c1.072 0 1.875.078 1.875.078V25.78s-3.541.104-6.546.104zm.297-2.726h2.588v-7.607h-2.321c-2.113 0-3.065 1.584-3.065 3.557.001 2.674.715 4.05 2.798 4.05zm-8.895-10.383v12.993s-2.055.169-5.864.169c-3.808 0-5.863-.571-5.863-3.868v-9.294c.625-.052 1.25-.078 1.785-.078 1.072 0 1.876.078 1.876.078v8.801c0 1.168.803 1.558 2.202 1.558h2.203V12.775a21.428 21.428 0 0 1 3.661 0zm-27.272 6.23c0-3.998 1.341-6.335 6.399-6.335 5.06 0 6.429 2.336 6.429 6.335 0 4.491-1.963 6.932-6.429 6.932-4.464 0-6.399-2.44-6.399-6.932zm3.602.078c0 2.44.714 4.076 2.797 4.076 2.084 0 2.828-1.506 2.828-3.972 0-2.414-.744-3.712-2.828-3.712-2.083 0-2.797 1.168-2.797 3.608zm-9.945 6.699V6.96l3.66-.675v19.497a21.57 21.57 0 0 1-1.786.078 21.953 21.953 0 0 1-1.874-.078zm-29.93-13.085c2.142 0 3.839.078 3.839.078s.089.623.089 1.454c0 .415-.03.883-.089 1.35h-3.988v10.203s-.833.078-1.905.078c-.536 0-1.161-.026-1.756-.078V12.879s1.489-.182 3.81-.182zm-6.641 7.762h-9.107c0 1.973 1.428 2.726 3.483 2.726 2.5 0 4.166-.701 4.166-.701.744 1.324.923 2.7.923 2.7s-1.847.779-5.09.779c-5.09 0-7.144-2.233-7.144-6.724 0-4.387 2.381-6.568 6.608-6.568 3.958 0 6.279 2.44 6.279 6.257.001.934-.118 1.531-.118 1.531zm-6.16-5.036c-2.025 0-2.858 1.064-2.886 2.57h5.327v-.389c0-1.013-.656-2.181-2.441-2.181zM184.794 25.78V9.996l3.632-.675v3.453h3.81c.059.441.089.909.089 1.324 0 .831-.089 1.48-.089 1.48h-3.81V25.78s-.805.078-1.875.078c-.537 0-1.132-.026-1.757-.078zm-8.539-13.109c3.333 0 5.03 1.246 5.03 1.246s-.566 1.272-1.936 2.129c0 0-1.249-.727-3.094-.727-1.309 0-1.875.519-1.875 1.298 0 1.272 1.756 1.246 3.661 1.48 1.905.234 3.808 1.298 3.808 3.661 0 2.882-1.963 4.18-6.19 4.18-3.661 0-5.119-1.35-5.119-1.35s.564-1.246 1.935-2.051c0 0 1.369.753 3.185.753 1.755 0 2.649-.493 2.649-1.428 0-1.428-1.905-1.376-3.869-1.558-1.844-.182-3.63-1.22-3.63-3.583-.001-2.856 1.843-4.05 5.445-4.05zm-14.468 2.908h-1.845v10.203s-.803.078-1.875.078c-.535 0-1.161-.026-1.786-.078V12.879s2.53-.182 5.507-.182c4.732 0 6.219 1.454 6.219 5.504v7.581s-.803.078-1.875.078c-.535 0-1.16-.026-1.786-.078v-7.814c-.001-1.87-.625-2.389-2.559-2.389zm-21.048 3.426c0-3.998 1.339-6.335 6.4-6.335 5.058 0 6.429 2.336 6.429 6.335 0 4.491-1.966 6.932-6.429 6.932-4.466 0-6.4-2.44-6.4-6.932zm3.602.078c0 2.44.714 4.076 2.799 4.076 2.082 0 2.827-1.506 2.827-3.972 0-2.414-.745-3.712-2.827-3.712-2.085 0-2.799 1.168-2.799 3.608zm-16.832-4.907h.119s.089-.441 2.708-4.595l2.083-3.297a41.815 41.815 0 0 1 2.53-.078c1.429 0 2.649.078 2.649.078V25.78c-.655.052-1.28.078-1.845.078-1.131 0-1.994-.078-1.994-.078l.06-15.473h-.119s-.357 1.168-2.887 4.959l-3.066 4.595h-.357l-3.006-4.517c-2.47-3.713-2.947-5.037-2.947-5.037h-.119l.059 15.473s-.863.078-1.994.078c-.565 0-1.191-.026-1.845-.078V6.283a39.689 39.689 0 0 1 2.441-.078c1.429 0 2.738.078 2.738.078l2.351 3.687c2.322 3.66 2.441 4.206 2.441 4.206zm-25.522 16.097V12.879s2.828-.182 6.25-.182c4.405 0 6.578 1.636 6.578 6.412 0 3.972-2.173 6.698-7.143 6.698-.684 0-1.458-.026-2.054-.052v4.517c-.565.052-1.161.078-1.696.078-1.071.001-1.935-.077-1.935-.077zm3.631-14.694v7.581h2.054c2.679 0 3.393-1.843 3.393-4.05 0-2.622-.714-3.531-2.827-3.531h-2.62zm-13.73 10.306c-3.571 0-4.941-1.402-4.941-3.972 0-2.544 1.399-3.972 5.208-3.972h2.738v-.675c0-1.48-1.101-1.791-2.56-1.791-1.964 0-3.929.519-3.929.519s-.446-1.454-.268-2.804c0 0 1.488-.519 4.196-.519 4.137 0 6.22 1.116 6.22 4.439v8.671c.003 0-3.39.104-6.664.104zm.298-2.466c1.191 0 2.708-.078 2.708-.078V20.33l-2.441-.026c-1.756-.026-1.934.805-1.934 1.609 0 .831.268 1.506 1.667 1.506zm-7.093.998c-1.236 1.039-3.426 1.585-5.672 1.585-5.925 0-9.87-3.195-9.87-10.028 0-6.832 3.945-9.924 9.87-9.924 2.246 0 4.437.546 5.672 1.585-.618 1.507-2.134 2.416-2.134 2.416s-1.432-.961-3.538-.961c-3.117 0-6.107 1.819-6.107 6.884s2.99 6.988 6.107 6.988c2.078 0 3.538-.961 3.538-.961s1.516.909 2.134 2.416zm155.206 0c-1.235 1.039-3.425 1.585-5.673 1.585-5.924 0-9.87-3.195-9.87-10.028 0-6.832 3.946-9.924 9.87-9.924 2.248 0 4.437.546 5.673 1.585-.618 1.507-2.133 2.416-2.133 2.416s-1.434-.961-3.54-.961c-3.116 0-6.106 1.819-6.106 6.884s2.99 6.988 6.106 6.988c2.079 0 3.54-.961 3.54-.961s1.515.909 2.133 2.416z" style="fill:#8463ff"/><path d="M236.57 43.542v8.217h-2.473V41.433h2.342l.131 2.109zm3.081-2.176-.038 2.348a6.167 6.167 0 0 0-.945-.076c-.381 0-.715.054-1.003.162a1.871 1.871 0 0 0-.721.449 2.007 2.007 0 0 0-.431.725c-.1.28-.155.598-.169.954l-.533-.067c0-.655.065-1.263.197-1.823a5.15 5.15 0 0 1 .571-1.47c.25-.42.562-.745.936-.973a2.45 2.45 0 0 1 1.312-.353c.136 0 .284.013.44.038.163.019.291.048.384.086zM228.329 51.95c-.767 0-1.457-.127-2.07-.382a4.53 4.53 0 0 1-1.563-1.059 4.87 4.87 0 0 1-.983-1.594 5.643 5.643 0 0 1-.338-1.966v-.382c0-.795.112-1.517.338-2.166a4.996 4.996 0 0 1 .954-1.689 4.216 4.216 0 0 1 1.48-1.088 4.651 4.651 0 0 1 1.901-.382c.718 0 1.353.124 1.901.372a3.688 3.688 0 0 1 1.377 1.031c.369.445.647.98.834 1.603a7.09 7.09 0 0 1 .281 2.052v1.059h-7.942v-1.737h5.507v-.191a3.112 3.112 0 0 0-.224-1.098 1.76 1.76 0 0 0-.637-.802c-.288-.204-.659-.305-1.115-.305-.367 0-.69.083-.964.248a1.959 1.959 0 0 0-.675.687c-.174.293-.305.643-.393 1.05s-.131.859-.131 1.355v.382c0 .433.057.833.169 1.203.119.369.29.69.514.964.232.267.506.477.825.63.324.146.693.22 1.104.22.518 0 .987-.102 1.405-.306.424-.21.792-.519 1.104-.926l1.246 1.317a4.18 4.18 0 0 1-.861.916 4.388 4.388 0 0 1-1.292.716c-.506.179-1.089.268-1.752.268zm-10.665-2.099 2.36-8.418h2.584l-3.474 10.326h-1.574l.104-1.908zm-1.724-8.418 2.388 8.437.084 1.89h-1.582l-3.483-10.326h2.593zm-3.999-4.333v14.659h-2.481V37.1h2.481zm-13.925 9.601v-.2c0-.757.107-1.454.319-2.09a4.85 4.85 0 0 1 .927-1.67 4.175 4.175 0 0 1 1.488-1.098c.587-.267 1.255-.401 2.005-.401.761 0 1.436.134 2.022.401a4.134 4.134 0 0 1 1.498 1.098c.406.471.716 1.028.927 1.67.212.636.319 1.333.319 2.09v.2c0 .751-.107 1.447-.319 2.09a4.972 4.972 0 0 1-.927 1.67 4.156 4.156 0 0 1-1.489 1.097c-.586.261-1.258.391-2.013.391-.749 0-1.42-.13-2.014-.391a4.157 4.157 0 0 1-1.497-1.097 4.972 4.972 0 0 1-.927-1.67 6.601 6.601 0 0 1-.319-2.09zm2.471-.2v.2c0 .452.045.875.131 1.269.088.395.223.741.404 1.04s.414.534.702.706c.293.166.643.248 1.049.248.4 0 .743-.083 1.03-.248.288-.172.521-.407.702-.706.188-.299.325-.646.412-1.04.088-.394.131-.818.131-1.269v-.2c0-.445-.043-.862-.131-1.25a3.234 3.234 0 0 0-.412-1.04 1.992 1.992 0 0 0-.711-.716c-.288-.178-.633-.267-1.039-.267-.4 0-.743.089-1.03.267a2 2 0 0 0-.702.716 3.445 3.445 0 0 0-.404 1.04 5.7 5.7 0 0 0-.132 1.25zm-6.413 1.651c0-.267-.04-.506-.123-.716a1.318 1.318 0 0 0-.421-.582c-.2-.178-.483-.35-.852-.515-.362-.172-.83-.35-1.404-.534a15.478 15.478 0 0 1-1.779-.687 6.99 6.99 0 0 1-1.453-.887 3.761 3.761 0 0 1-.964-1.164c-.231-.445-.347-.961-.347-1.546 0-.573.119-1.094.356-1.565a3.559 3.559 0 0 1 1.03-1.212 4.836 4.836 0 0 1 1.563-.792 6.844 6.844 0 0 1 2.005-.277c1.011 0 1.885.188 2.622.563.743.375 1.318.884 1.723 1.527.406.643.609 1.365.609 2.166h-2.565c0-.433-.09-.814-.273-1.145a1.859 1.859 0 0 0-.805-.783c-.356-.191-.806-.286-1.349-.286-.524 0-.961.08-1.311.239a1.786 1.786 0 0 0-.778.649 1.708 1.708 0 0 0-.252.916c0 .254.059.483.178.687.117.197.296.385.533.563.238.172.531.334.88.487.356.146.768.293 1.237.439.749.229 1.404.484 1.966.763.568.28 1.04.598 1.415.954.381.356.664.757.852 1.202.194.445.29.951.29 1.518 0 .598-.115 1.133-.346 1.603a3.391 3.391 0 0 1-.994 1.203c-.431.331-.949.582-1.554.754a7.29 7.29 0 0 1-2.014.258 7.405 7.405 0 0 1-1.966-.267 5.934 5.934 0 0 1-1.752-.821 4.157 4.157 0 0 1-1.254-1.393c-.312-.566-.468-1.228-.468-1.985h2.585c0 .439.068.814.205 1.126.144.306.344.557.599.754.262.191.568.331.918.42.35.089.728.134 1.133.134.525 0 .956-.073 1.293-.22.343-.153.599-.363.767-.63.177-.269.265-.575.265-.918zm-19.301-8.179-3.887 11.787h-2.726l5.095-13.896h1.742l-.224 2.109zm3.249 11.786-3.906-11.787-.234-2.109h1.751l5.122 13.896h-2.733zm-.178-5.163v2.071h-7.314v-2.071h7.314zM164.649 43.6v2.061h-7.173V43.6h7.173zm-6.471-5.736V51.76h-2.576V37.864h2.576zm8.381 0V51.76h-2.574V37.864h2.574zm-15.526 9.324h2.576c-.069.929-.321 1.753-.759 2.472-.437.713-1.046 1.272-1.827 1.68-.78.407-1.727.611-2.838.611-.855 0-1.625-.153-2.313-.458a5.009 5.009 0 0 1-1.751-1.327c-.481-.579-.849-1.272-1.106-2.08-.255-.814-.383-1.727-.383-2.739v-1.059c0-1.012.131-1.925.393-2.739.262-.814.637-1.508 1.125-2.081a5.03 5.03 0 0 1 1.77-1.336c.693-.312 1.466-.468 2.322-.468 1.111 0 2.051.21 2.819.63a4.502 4.502 0 0 1 1.789 1.708c.424.725.68 1.559.768 2.5h-2.576c-.05-.585-.174-1.082-.374-1.489a1.99 1.99 0 0 0-.882-.926c-.386-.216-.902-.324-1.544-.324-.499 0-.94.095-1.32.286a2.432 2.432 0 0 0-.937.859c-.25.375-.437.846-.562 1.413-.126.56-.188 1.209-.188 1.947v1.079c0 .706.057 1.339.169 1.899.112.56.288 1.034.525 1.422.236.388.543.684.917.888.375.204.821.305 1.339.305.63 0 1.143-.102 1.536-.305.4-.204.702-.503.909-.897.212-.396.346-.886.403-1.471zm-13.664-9.324V51.76h-2.566V37.864h2.566zm4.234 0v2.071h-10.985v-2.071h10.985zm-17.147 8.828h-3.512V44.63h3.512c.574 0 1.039-.095 1.395-.286a1.85 1.85 0 0 0 .796-.802c.169-.344.253-.735.253-1.174 0-.426-.084-.824-.253-1.193a2.065 2.065 0 0 0-.796-.897c-.356-.229-.821-.344-1.395-.344h-2.669v11.825h-2.575V37.864h5.244c1.061 0 1.967.194 2.716.582.755.382 1.33.913 1.723 1.594.4.674.599 1.444.599 2.31 0 .897-.2 1.67-.599 2.319-.393.649-.968 1.148-1.723 1.498-.75.35-1.655.525-2.716.525zm-12.633-6.719-3.886 11.787h-2.725l5.094-13.896h1.742l-.225 2.109zm3.249 11.786-3.905-11.787-.234-2.109h1.751l5.123 13.896h-2.735zm-.178-5.163v2.071h-7.314v-2.071h7.314zm-13.064.592h2.575c-.069.929-.321 1.753-.758 2.472a4.578 4.578 0 0 1-1.826 1.68c-.78.407-1.726.611-2.838.611-.855 0-1.626-.153-2.313-.458a5.009 5.009 0 0 1-1.751-1.327c-.481-.579-.849-1.272-1.105-2.08-.256-.814-.384-1.727-.384-2.739v-1.059c0-1.012.131-1.925.393-2.739.262-.814.637-1.508 1.124-2.081a5.03 5.03 0 0 1 1.77-1.336c.693-.312 1.467-.468 2.323-.468 1.111 0 2.051.21 2.819.63a4.502 4.502 0 0 1 1.789 1.708c.424.725.68 1.559.768 2.5h-2.575c-.05-.585-.175-1.082-.375-1.489a1.995 1.995 0 0 0-.88-.926c-.387-.216-.902-.324-1.545-.324-.5 0-.94.095-1.32.286a2.432 2.432 0 0 0-.937.859c-.25.375-.437.846-.562 1.413-.125.56-.187 1.209-.187 1.947v1.079c0 .706.056 1.339.168 1.899.112.56.287 1.034.524 1.422.237.388.543.684.918.888.375.204.821.305 1.339.305.631 0 1.143-.102 1.536-.305.399-.204.702-.503.908-.897.212-.396.346-.886.402-1.471zm-15.536-9.324V51.76h-2.575V37.864h2.575zm-10.132 2.109L72.276 51.76H69.55l5.094-13.896h1.742l-.224 2.109zm3.249 11.786-3.905-11.787-.234-2.109h1.751l5.122 13.896h-2.734zm-.178-5.163v2.071H71.92v-2.071h7.313z" style="fill:#878c96"/></svg>